# xmcd
#
# Track frame offsets:
#	150
#	18619
#	34402
#	53707
#	71740
#	90239
#	113771
#	131605
#	148556
#	162874
#
# Disc length: 2900 seconds
#
# Revision: 1
# Processed by: cddbd v1.5.2PL0 Copyright (c) Steve Scherf et al.
# Submitted via: audiograbber 1.83.01
#
DISCID=840b520a
DTITLE=Jan Blohm - 7 Jaar
DYEAR=2009
DGENRE=Rock
TTITLE0=Rosie
TTITLE1=7 Jaar
TTITLE2=Tangerine
TTITLE3=Hoor Jy My
TTITLE4=Chardonay
TTITLE5=Lyfie
TTITLE6=Ode Aan Die Einde Van Tyd
TTITLE7=Sê My Weer
TTITLE8=Halleluja
TTITLE9=O My Engel
EXTD=
EXTT0=
EXTT1=
EXTT2=
EXTT3=
EXTT4=
EXTT5=
EXTT6=
EXTT7=
EXTT8=
EXTT9=
PLAYORDER=
